HIERARCHY
ROOT Hips
{
    OFFSET 0.000000 0.000000 0.000000
    CHANNELS 6 Xposition Yposition Zposition Zrotation Xrotation Yrotation
    JOINT Spine
    {
        OFFSET -0.000000 7.925200 0.000000
        CHANNELS 3 Zrotation Xrotation Yrotation
        JOINT Spine1
        {
            OFFSET -0.000000 23.364719 0.000000
            CHANNELS 3 Zrotation Xrotation Yrotation
            JOINT Neck
            {
                OFFSET -0.000000 23.268766 2.115342
                CHANNELS 3 Zrotation Xrotation Yrotation
                JOINT Head
                {
                    OFFSET -0.000000 13.530829 -1.932976
                    CHANNELS 3 Zrotation Xrotation Yrotation
                    End Site
                    {
                        OFFSET -0.000000 24.162195 0.000000
                    }
                }
            }
            JOINT LeftShoulder
            {
                OFFSET 3.858291 22.792089 -0.033814
                CHANNELS 3 Zrotation Xrotation Yrotation
                JOINT LeftArm
                {
                    OFFSET 7.057024 0.000000 0.000000
                    CHANNELS 3 Zrotation Xrotation Yrotation
                    JOINT LeftForeArm
                    {
                        OFFSET 34.734173 0.000000 0.000000
                        CHANNELS 3 Zrotation Xrotation Yrotation
                        JOINT LeftHand
                        {
                            OFFSET 23.943203 0.000000 0.000000
                            CHANNELS 3 Zrotation Xrotation Yrotation
                            End Site
                            {
                                OFFSET 14.497317 0.000000 0.000000
                            }
                        }
                    }
                }
            }
            JOINT RightShoulder
            {
                OFFSET -3.868823 22.792089 -0.033814
                CHANNELS 3 Zrotation Xrotation Yrotation
                JOINT RightArm
                {
                    OFFSET -7.057024 0.000000 0.000000
                    CHANNELS 3 Zrotation Xrotation Yrotation
                    JOINT RightForeArm
                    {
                        OFFSET -34.734173 0.000000 0.000000
                        CHANNELS 3 Zrotation Xrotation Yrotation
                        JOINT RightHand
                        {
                            OFFSET -23.943203 0.000000 0.000000
                            CHANNELS 3 Zrotation Xrotation Yrotation
                            End Site
                            {
                                OFFSET -14.497317 0.000000 0.000000
                            }
                        }
                    }
                }
            }
        }
    }
    JOINT LeftUpLeg
    {
        OFFSET 9.664878 0.000000 0.000000
        CHANNELS 3 Zrotation Xrotation Yrotation
        JOINT LeftLeg
        {
            OFFSET -0.000000 -38.728706 0.000000
            CHANNELS 3 Zrotation Xrotation Yrotation
            JOINT LeftFoot
            {
                OFFSET -0.000000 -40.242161 0.000000
                CHANNELS 3 Zrotation Xrotation Yrotation
                JOINT LeftToeBase
                {
                    OFFSET -0.000000 -6.282171 14.497317
                    CHANNELS 3 Zrotation Xrotation Yrotation
                    End Site
                    {
                        OFFSET -0.000000 0.000000 3.865951
                    }
                }
            }
        }
    }
    JOINT RightUpLeg
    {
        OFFSET -9.664878 0.000000 0.000000
        CHANNELS 3 Zrotation Xrotation Yrotation
        JOINT RightLeg
        {
            OFFSET -0.000000 -38.728706 0.000000
            CHANNELS 3 Zrotation Xrotation Yrotation
            JOINT RightFoot
            {
                OFFSET -0.000000 -40.242161 0.000000
                CHANNELS 3 Zrotation Xrotation Yrotation
                JOINT RightToeBase
                {
                    OFFSET -0.000000 -6.282171 14.497317
                    CHANNELS 3 Zrotation Xrotation Yrotation
                    End Site
                    {
                        OFFSET -0.000000 0.000000 3.865951
                    }
                }
            }
        }
    }
}
MOTION
Frames:    5
Frame Time:    0.008333
5.254452    101.034462    10.945641    -9.617371    -4.061198    81.964043    4.476859    -2.357324    2.923234    -0.420038    7.909415    2.860165    -3.142827    6.090574    -2.184088    2.193336    0.517545    -1.674278    -1.959787    5.631452    2.756262    -35.689861    65.870689    -20.258482    3.839348    -13.496827    -21.981611    -1.882748    -12.537545    -14.442637    -0.329071    7.142540    7.118389    26.540901    60.595089    36.297791    -0.312233    -14.921688    17.921669    -1.877280    -14.996991    7.756914    -0.945880    -15.138041    6.064468    -3.511416    7.911879    7.072784    -11.018173    32.607227    5.231766    0.000000    0.000000    0.000000    0.555989    -14.704739    -1.733266    -2.811769    6.656618    0.611741    1.660897    33.422894    -8.117592    0.000000    0.000000    0.000000    
5.322756    99.721001    11.724361    -9.654879    -4.224573    81.973648    4.586927    -2.284234    2.971034    -0.563885    7.713554    2.917606    -3.194816    5.996268    -2.223980    2.319438    0.914463    -1.698637    -1.915998    5.634027    2.781330    -36.379467    65.955925    -19.652250    3.740513    -13.430099    -22.272682    -2.066790    -12.462041    -14.155570    -0.297640    7.221750    7.217767    27.074261    60.857677    35.888100    -0.146345    -14.939680    17.922802    -1.978086    -15.047866    7.818152    -0.896932    -15.285749    6.152428    -3.614601    8.423996    7.299544    -11.109913    32.638290    5.293890    0.000000    0.000000    0.000000    0.279399    -14.816483    -1.302046    -2.806869    7.060000    0.468349    1.960164    34.139866    -8.055277    0.000000    0.000000    0.000000    
5.389311    98.380424    12.485542    -9.742004    -4.350541    82.012657    4.394538    -2.456097    2.991619    -0.168378    7.863342    2.908968    -3.165533    6.349205    -2.057990    1.897907    0.077341    -1.582010    -2.094114    5.544834    2.917741    -36.698536    66.188789    -19.423952    3.719143    -13.470079    -22.728720    -2.177961    -12.480554    -14.008141    -0.731217    7.287802    7.102770    26.883448    61.236271    36.386806    -0.020411    -15.107125    17.986555    -2.174810    -15.245848    7.736110    -0.884598    -15.446942    6.361499    -3.825963    8.865107    8.188581    -10.743574    31.727030    3.814944    0.000000    0.000000    0.000000    -0.014451    -15.035408    -0.979039    -2.793149    7.664330    0.190009    3.455830    34.400856    -8.402692    0.000000    0.000000    0.000000    
5.502407    96.966347    13.274433    -9.747210    -4.497248    82.072342    4.337132    -2.569960    3.009428    -0.113211    7.910970    2.919964    -3.414299    6.171360    -2.129938    2.268841    0.440054    -1.582892    -2.064151    5.521942    2.883726    -37.198826    66.315842    -19.031157    3.628458    -13.507119    -23.040478    -2.403050    -12.492812    -14.282431    -0.807486    7.286486    7.119061    27.196899    61.498707    36.213139    0.125958    -15.091455    17.993008    -2.108894    -15.250429    7.858044    -0.830652    -15.472821    6.803713    -4.153699    9.695980    9.156301    -4.513471    28.991779    -1.280033    0.000000    0.000000    0.000000    -0.279825    -15.205165    -0.680751    -2.754424    8.611956    0.031898    7.566762    32.731373    -9.946657    0.000000    0.000000    0.000000    
5.597136    95.476654    14.086752    -9.747670    -4.662972    82.209953    4.162524    -2.247000    2.918039    0.223347    6.882076    2.822989    -3.861390    7.167131    -1.974148    2.575371    0.093057    -1.363560    -2.768984    5.866041    2.489764    -38.249561    66.431938    -17.418255    3.639054    -13.736014    -23.295780    -2.511242    -12.696994    -14.378030    -0.704866    7.799768    7.920152    28.502069    61.617222    34.690418    0.114523    -15.010725    17.777788    -2.177275    -15.174094    7.953533    -0.797638    -15.595307    7.485781    -4.411817    10.973023    9.901917    -0.871255    24.349869    -3.782433    0.000000    0.000000    0.000000    -0.515041    -15.430259    -0.699050    -2.711203    10.172477    0.352868    12.573160    28.728374    -9.895934    0.000000    0.000000    0.000000    
